# xmcd
#
# Track frame offsets:
#	150
#	14436
#	33655
#	47049
#	69544
#
# Disc length: 1095 seconds
#
# Revision: 1
# Processed by: cddbd v1.5.2PL0 Copyright (c) Steve Scherf et al.
# Submitted via: audiograbber 1.83.01
#
DISCID=3f044505
DTITLE=Bronwyn Halley - All In
DYEAR=2017
DGENRE=Country
TTITLE0=Quarter Life Crisis
TTITLE1=Just A Little Chipped
TTITLE2=Forever Never Yours
TTITLE3=Hide Away
TTITLE4=Wish Me Luck
EXTD=
EXTT0=
EXTT1=
EXTT2=
EXTT3=
EXTT4=
PLAYORDER=
